<?xml version="1.0" encoding="UTF-8" standalone="no"?>
<svg
   xmlns:dc="http://purl.org/dc/elements/1.1/"
   xmlns:cc="http://creativecommons.org/ns#"
   xmlns:rdf="http://www.w3.org/1999/02/22-rdf-syntax-ns#"
   xmlns:svg="http://www.w3.org/2000/svg"
   xmlns="http://www.w3.org/2000/svg"
   xmlns:sodipodi="http://sodipodi.sourceforge.net/DTD/sodipodi-0.dtd"
   xmlns:inkscape="http://www.inkscape.org/namespaces/inkscape"
   inkscape:version="1.0rc1 (09960d6, 2020-04-09)"
   sodipodi:docname="home_white.svg"
   version="1.1"
   width="512"
   viewBox="0 0 511.995 511.995"
   height="512"
   enable-background="new 0 0 511.995 511.995"
   id="Layer_1">
  <metadata
     id="metadata52">
    <rdf:RDF>
      <cc:Work
         rdf:about="">
        <dc:format>image/svg+xml</dc:format>
        <dc:type
           rdf:resource="http://purl.org/dc/dcmitype/StillImage" />
        <dc:title></dc:title>
      </cc:Work>
    </rdf:RDF>
  </metadata>
  <defs
     id="defs50" />
  <sodipodi:namedview
     inkscape:current-layer="Layer_1"
     inkscape:window-maximized="1"
     inkscape:window-y="23"
     inkscape:window-x="0"
     inkscape:cy="256"
     inkscape:cx="256"
     inkscape:zoom="0.53125"
     showgrid="false"
     id="namedview48"
     inkscape:window-height="995"
     inkscape:window-width="1920"
     inkscape:pageshadow="2"
     inkscape:pageopacity="0"
     guidetolerance="10"
     gridtolerance="10"
     objecttolerance="10"
     borderopacity="1"
     bordercolor="#666666"
     pagecolor="#ffffff" />
  <g
     id="g45">
    <path
       style="fill:#ffffff"
       id="path43"
       d="m507.308 236.641-198.98-198.99c-28.86-28.85-75.8-28.85-104.66 0l-198.98 198.99c-6.25 6.25-6.25 16.38 0 22.63 6.24 6.25 16.38 6.25 22.62 0l12.69-12.69v203.4c0 25.405 20.595 46 46 46h80c5.523 0 10-4.477 10-10v-148c0-27.614 22.386-50 50-50h60c27.614 0 50 22.386 50 50v148c0 5.523 4.477 10 10 10h80c25.405 0 46-20.595 46-46v-203.4l12.69 12.69c3.12 3.12 7.22 4.69 11.31 4.69s8.19-1.57 11.31-4.69c6.25-6.25 6.25-16.38 0-22.63z" />
  </g>
</svg>
