<?xml version="1.0" encoding="UTF-8" standalone="no"?>
<svg
   xmlns:dc="http://purl.org/dc/elements/1.1/"
   xmlns:cc="http://creativecommons.org/ns#"
   xmlns:rdf="http://www.w3.org/1999/02/22-rdf-syntax-ns#"
   xmlns:svg="http://www.w3.org/2000/svg"
   xmlns="http://www.w3.org/2000/svg"
   xmlns:sodipodi="http://sodipodi.sourceforge.net/DTD/sodipodi-0.dtd"
   xmlns:inkscape="http://www.inkscape.org/namespaces/inkscape"
   inkscape:version="1.0rc1 (09960d6, 2020-04-09)"
   sodipodi:docname="wallet_white.svg"
   version="1.1"
   width="512"
   viewBox="0 0 480 480"
   height="512"
   enable-background="new 0 0 480 480"
   id="Layer_1">
  <metadata
     id="metadata112">
    <rdf:RDF>
      <cc:Work
         rdf:about="">
        <dc:format>image/svg+xml</dc:format>
        <dc:type
           rdf:resource="http://purl.org/dc/dcmitype/StillImage" />
        <dc:title></dc:title>
      </cc:Work>
    </rdf:RDF>
  </metadata>
  <defs
     id="defs110" />
  <sodipodi:namedview
     inkscape:current-layer="Layer_1"
     inkscape:window-maximized="1"
     inkscape:window-y="23"
     inkscape:window-x="0"
     inkscape:cy="256"
     inkscape:cx="256"
     inkscape:zoom="0.53125"
     showgrid="false"
     id="namedview108"
     inkscape:window-height="995"
     inkscape:window-width="1920"
     inkscape:pageshadow="2"
     inkscape:pageopacity="0"
     guidetolerance="10"
     gridtolerance="10"
     objecttolerance="10"
     borderopacity="1"
     bordercolor="#666666"
     pagecolor="#ffffff" />
  <path
     style="fill:#ffffff"
     id="path105"
     d="m444.967 360.527c4.432-.022 8.033 3.567 8.033 8v70.973c0 22.091-17.909 40-40 40h-373c-22.091 0-40-17.909-40-40v-298c0-22.091 17.909-40 40-40h373c22.091 0 40 17.909 40 40v71.001c0 4.431-3.595 8.018-8.026 8-8.322-.034-27.356-.001-73.965-.001-26.51 0-48.009 21.49-48.009 48v44.001c0 26.509 21.492 47.999 48.002 47.999 47.302 0 65.816.067 73.965.027zm35.033-92.027v44c0 17.689-14.404 32-31.98 32h-77.02c-17.64 0-32-14.35-32-32v-44c0-17.65 14.36-32 32-32h77c17.64 0 32 14.35 32 32zm-79 22c0-4.418-3.582-8-8-8h-12c-4.418 0-8 3.582-8 8s3.582 8 8 8h12c4.418 0 8-3.582 8-8zm-20.4-239.03-7.457-2.196c-3.139-.924-6.528.156-8.553 2.726-6.074 7.708-10.711 15.693-11.48 24.837-.392 4.663 3.3 8.663 7.979 8.663h34.155c4.987 0 8.837-4.528 7.877-9.422-2.21-11.259-10.493-21.144-22.521-24.608zm-43.585 26.258c.296-9.504 3.407-17.969 8.391-26.157 2.728-4.481.455-10.331-4.577-11.812l-50.727-14.937c-4.913-1.447-10.108 2.115-10.102 7.678v45c0 4.418 3.582 8 8 8h41.025c4.329 0 7.855-3.446 7.99-7.772zm-197.015 7.772h11c4.418 0 8-3.582 8-8v-69c0-4.418-3.582-8-8-8h-11c-4.418 0-8 3.582-8 8v69c0 4.418 3.582 8 8 8zm92-85h-49c-4.418 0-8 3.582-8 8v69c0 4.418 3.582 8 8 8h73c4.418 0 8-3.582 8-8v-45c0-17.65-14.36-32-32-32zm-124 0h-11c-17.673 0-32 14.327-32 32v45c0 4.418 3.582 8 8 8h35c4.418 0 8-3.582 8-8v-69c0-4.418-3.582-8-8-8z" />
</svg>
